<?xml version="1.0" standalone="no"?>
<!DOCTYPE svg PUBLIC "-//W3C//DTD SVG 20010904//EN"
 "http://www.w3.org/TR/2001/REC-SVG-20010904/DTD/svg10.dtd">
<svg version="1.0" xmlns="http://www.w3.org/2000/svg"
 width="557.000000pt" height="557.000000pt" viewBox="0 0 557.000000 557.000000"
 preserveAspectRatio="xMidYMid meet">
<metadata>
Created by potrace 1.14, written by Peter Selinger 2001-2017
</metadata>
<g transform="translate(0.000000,557.000000) scale(0.100000,-0.100000)"
fill="#000000" stroke="none">
<path d="M2155 5325 c-44 -13 -116 -36 -161 -53 -156 -58 -216 -64 -404 -46
-121 11 -325 8 -325 -6 0 -1 -7 -3 -15 -5 -42 -11 -112 -41 -218 -94 -184 -92
-198 -95 -442 -106 -122 -5 -171 -11 -240 -30 -3 -1 -20 -5 -38 -9 -17 -4 -32
-10 -32 -12 0 -3 20 -42 44 -87 83 -157 124 -232 148 -277 31 -56 122 -228
179 -340 24 -47 46 -87 49 -90 3 -3 16 -27 30 -55 14 -27 31 -58 39 -67 8 -10
12 -18 8 -18 -3 0 26 -57 63 -126 38 -69 72 -134 75 -145 4 -10 11 -19 16 -19
5 0 9 -8 9 -18 0 -10 8 -28 17 -42 18 -26 56 -95 110 -205 19 -38 44 -82 55
-97 11 -16 16 -28 12 -28 -3 0 -2 -6 3 -12 10 -13 51 -88 143 -263 29 -55 67
-127 85 -160 18 -33 58 -109 90 -170 69 -131 124 -234 175 -330 69 -129 143
-270 168 -320 14 -27 34 -62 44 -78 11 -15 17 -27 14 -27 -4 0 4 -17 17 -37
13 -21 37 -65 53 -98 16 -33 35 -66 42 -73 6 -7 12 -18 12 -23 0 -5 20 -45 44
-89 25 -44 42 -80 39 -80 -3 0 1 -8 9 -17 9 -10 24 -36 35 -58 11 -22 43 -85
73 -140 29 -55 70 -131 90 -170 21 -38 63 -119 95 -180 32 -60 70 -132 85
-160 15 -27 42 -79 60 -115 19 -36 42 -77 52 -92 11 -16 16 -28 12 -28 -3 0
-2 -6 4 -12 5 -7 38 -67 72 -133 35 -66 69 -127 76 -135 7 -8 13 -18 13 -23 0
-4 11 -27 24 -52 l22 -45 20 37 c11 21 24 41 30 45 5 4 6 8 1 8 -5 0 -4 6 2
12 10 13 88 158 151 283 20 39 38 72 41 75 3 3 21 37 41 75 39 77 144 277 190
362 16 30 59 112 96 181 36 70 78 150 93 177 28 52 108 201 167 315 19 36 56
106 82 155 26 50 72 135 101 190 29 55 72 137 97 182 l44 82 -36 15 c-19 8
-35 17 -35 20 0 15 86 169 96 173 7 2 25 -2 41 -11 l30 -15 32 62 c55 103 141
267 189 357 24 47 61 117 82 155 48 90 112 211 185 350 32 61 75 142 95 180
21 39 57 106 80 150 23 44 55 103 70 130 15 28 47 88 70 135 24 47 50 93 58
103 8 9 12 17 7 17 -4 0 -3 6 3 13 10 12 47 80 144 267 31 58 73 139 95 180
22 41 63 119 92 174 29 54 50 100 48 102 -7 7 -109 32 -162 39 -27 4 -102 9
-165 11 -207 6 -241 15 -425 106 -115 57 -174 81 -265 107 -31 8 -199 6 -300
-5 -171 -18 -239 -8 -460 71 -41 15 -82 28 -90 30 -8 2 -35 8 -60 14 -43 10
-214 8 -255 -3 -139 -36 -221 -49 -315 -49 -58 0 -118 3 -135 6 -16 4 -61 14
-100 23 -38 9 -79 18 -90 21 -11 3 -67 6 -125 8 -86 2 -120 -1 -185 -20z"/>
</g>
</svg>
