<svg width="141" height="38" viewBox="0 0 141 38" fill="none" xmlns="http://www.w3.org/2000/svg">
<path d="M11.4322 6.472L18.5362 5.512L15.1282 21.544C16.6642 21.416 18.0722 20.744 19.3522 19.528C20.6642 18.312 21.6882 16.808 22.4242 15.016C23.1602 13.224 23.5282 11.464 23.5282 9.736C23.5282 7.816 23.0322 6.248 22.0402 5.032C21.0482 3.816 19.5602 3.208 17.5762 3.208C13.6722 3.208 10.6162 4.232 8.40819 6.28C6.23219 8.328 5.14419 11.192 5.14419 14.872C5.14419 16.056 5.25619 16.888 5.48019 17.368C5.70419 17.816 5.81619 18.072 5.81619 18.136C4.08819 18.136 2.79219 17.784 1.92819 17.08C1.09619 16.344 0.680189 15.144 0.680189 13.48C0.680189 11.432 1.51219 9.448 3.17619 7.528C4.87219 5.576 7.03219 4.008 9.65619 2.824C12.2802 1.608 14.9042 0.999997 17.5282 0.999997C20.0562 0.999997 22.1682 1.432 23.8642 2.296C25.5602 3.16 26.8082 4.312 27.6082 5.752C28.4402 7.16 28.8562 8.728 28.8562 10.456C28.8562 12.536 28.2802 14.568 27.1282 16.552C26.0082 18.536 24.3922 20.168 22.2802 21.448C20.1682 22.696 17.7362 23.32 14.9842 23.32H14.7442L11.8162 37H4.90419L11.4322 6.472ZM36.1638 10.408C35.1078 10.408 34.2118 10.04 33.4758 9.304C32.7398 8.568 32.3718 7.672 32.3718 6.616C32.3718 5.56 32.7398 4.664 33.4758 3.928C34.2118 3.16 35.1078 2.776 36.1638 2.776C37.2198 2.776 38.1158 3.16 38.8518 3.928C39.6198 4.664 40.0038 5.56 40.0038 6.616C40.0038 7.672 39.6198 8.568 38.8518 9.304C38.1158 10.04 37.2198 10.408 36.1638 10.408ZM32.8998 37.288C31.3638 37.288 30.1158 36.808 29.1558 35.848C28.2278 34.888 27.7638 33.448 27.7638 31.528C27.7638 30.728 27.8918 29.688 28.1478 28.408L31.4118 13H38.3238L34.8678 29.32C34.7398 29.8 34.6758 30.312 34.6758 30.856C34.6758 31.496 34.8198 31.96 35.1078 32.248C35.4278 32.504 35.9398 32.632 36.6438 32.632C37.2198 32.632 37.7318 32.536 38.1798 32.344C38.0518 33.944 37.4758 35.176 36.4518 36.04C35.4598 36.872 34.2758 37.288 32.8998 37.288ZM50.4198 15.592H47.7318C46.8358 15.592 46.1638 15.64 45.7158 15.736C45.2998 15.832 45.0918 16.04 45.0918 16.36C45.0918 16.424 45.1718 16.504 45.3318 16.6C45.5238 16.664 45.6198 16.936 45.6198 17.416C45.6198 18.248 45.3638 18.888 44.8518 19.336C44.3398 19.752 43.7318 19.96 43.0278 19.96C42.4198 19.96 41.8918 19.784 41.4438 19.432C41.0278 19.048 40.8198 18.52 40.8198 17.848C40.8198 17.176 41.0438 16.456 41.4918 15.688C41.9718 14.92 42.6278 14.28 43.4598 13.768C44.3238 13.256 45.2998 13 46.3878 13H58.7238L46.9638 33.304C47.1558 33.304 47.5078 33.336 48.0198 33.4C49.1078 33.528 49.9718 33.592 50.6118 33.592C51.9878 33.592 52.7398 33.272 52.8678 32.632C52.5798 32.6 52.3558 32.504 52.1958 32.344C52.0358 32.152 51.9558 31.912 51.9558 31.624C51.9558 31.112 52.1958 30.648 52.6758 30.232C53.1558 29.784 53.8118 29.56 54.6438 29.56C55.3478 29.56 55.8758 29.768 56.2278 30.184C56.5798 30.6 56.7558 31.16 56.7558 31.864C56.7558 32.632 56.5158 33.416 56.0358 34.216C55.5558 35.016 54.8678 35.688 53.9718 36.232C53.0758 36.744 52.0518 37 50.8998 37H38.1798L50.4198 15.592ZM71.1903 15.592H68.5023C67.6063 15.592 66.9343 15.64 66.4863 15.736C66.0703 15.832 65.8623 16.04 65.8623 16.36C65.8623 16.424 65.9423 16.504 66.1023 16.6C66.2943 16.664 66.3903 16.936 66.3903 17.416C66.3903 18.248 66.1343 18.888 65.6223 19.336C65.1103 19.752 64.5023 19.96 63.7983 19.96C63.1903 19.96 62.6623 19.784 62.2143 19.432C61.7983 19.048 61.5903 18.52 61.5903 17.848C61.5903 17.176 61.8143 16.456 62.2623 15.688C62.7423 14.92 63.3983 14.28 64.2303 13.768C65.0943 13.256 66.0703 13 67.1583 13H79.4943L67.7343 33.304C67.9263 33.304 68.2783 33.336 68.7903 33.4C69.8783 33.528 70.7423 33.592 71.3823 33.592C72.7583 33.592 73.5103 33.272 73.6383 32.632C73.3503 32.6 73.1263 32.504 72.9663 32.344C72.8063 32.152 72.7263 31.912 72.7263 31.624C72.7263 31.112 72.9663 30.648 73.4463 30.232C73.9263 29.784 74.5823 29.56 75.4143 29.56C76.1183 29.56 76.6463 29.768 76.9983 30.184C77.3503 30.6 77.5263 31.16 77.5263 31.864C77.5263 32.632 77.2863 33.416 76.8063 34.216C76.3263 35.016 75.6383 35.688 74.7423 36.232C73.8463 36.744 72.8223 37 71.6703 37H58.9503L71.1903 15.592ZM91.4816 37.864C89.4656 37.864 87.6896 37.512 86.1536 36.808C84.6176 36.104 83.4336 35.128 82.6016 33.88C81.7696 32.6 81.3536 31.128 81.3536 29.464C81.3536 28.056 81.6416 26.776 82.2176 25.624C82.8256 24.472 83.6256 23.56 84.6176 22.888C85.6416 22.216 86.7616 21.88 87.9776 21.88C89.0976 21.88 90.0416 22.168 90.8096 22.744C91.5776 23.288 92.0576 24.056 92.2496 25.048C90.5856 25.048 89.2576 25.496 88.2656 26.392C87.2736 27.256 86.7776 28.44 86.7776 29.944C86.7776 31.32 87.1936 32.424 88.0256 33.256C88.8576 34.088 89.9616 34.504 91.3376 34.504C93.0336 34.504 94.4256 33.944 95.5136 32.824C96.6336 31.672 97.1936 30.232 97.1936 28.504C97.1936 27 96.7776 25.576 95.9456 24.232C95.1136 22.888 93.8656 21.256 92.2016 19.336C90.4736 17.352 89.1616 15.656 88.2656 14.248C87.4016 12.808 86.9696 11.24 86.9696 9.544C86.9696 7.88 87.4336 6.392 88.3616 5.08C89.2896 3.736 90.5696 2.68 92.2016 1.912C93.8336 1.144 95.6736 0.759997 97.7216 0.759997C100.314 0.759997 102.378 1.368 103.914 2.584C105.482 3.8 106.266 5.432 106.266 7.48C106.266 8.824 105.93 9.912 105.258 10.744C104.586 11.576 103.706 11.992 102.618 11.992C101.402 11.992 100.426 11.496 99.6896 10.504C100.298 10.056 100.778 9.464 101.13 8.728C101.482 7.992 101.658 7.224 101.658 6.424C101.658 5.4 101.354 4.584 100.746 3.976C100.138 3.368 99.3056 3.064 98.2496 3.064C96.9696 3.064 95.9136 3.528 95.0816 4.456C94.2816 5.352 93.8816 6.504 93.8816 7.912C93.8816 9.192 94.2496 10.392 94.9856 11.512C95.7216 12.6 96.8736 14.008 98.4416 15.736C99.7216 17.112 100.746 18.296 101.514 19.288C102.314 20.28 102.986 21.432 103.53 22.744C104.106 24.024 104.394 25.416 104.394 26.92C104.394 28.968 103.818 30.824 102.666 32.488C101.546 34.152 99.9936 35.464 98.0096 36.424C96.0576 37.384 93.8816 37.864 91.4816 37.864ZM114.345 37.192C111.977 37.192 110.105 36.584 108.729 35.368C107.353 34.152 106.665 32.232 106.665 29.608C106.665 27.432 107.113 25.016 108.009 22.36C108.905 19.704 110.345 17.416 112.329 15.496C114.313 13.544 116.809 12.568 119.817 12.568C123.913 12.568 125.961 15.128 125.961 20.248V20.296C126.057 20.328 126.233 20.344 126.489 20.344C127.545 20.344 128.761 20.072 130.137 19.528C131.513 18.952 132.761 18.264 133.881 17.464L134.313 18.76C133.385 19.752 132.169 20.6 130.665 21.304C129.193 21.976 127.577 22.456 125.817 22.744C125.561 25.656 124.905 28.2 123.849 30.376C122.793 32.552 121.433 34.232 119.769 35.416C118.105 36.6 116.297 37.192 114.345 37.192ZM116.265 32.872C117.033 32.872 117.801 32.44 118.569 31.576C119.337 30.68 120.009 29.48 120.585 27.976C121.161 26.44 121.577 24.744 121.833 22.888C120.969 22.696 120.537 22.024 120.537 20.872C120.537 19.56 121.033 18.696 122.025 18.28C121.961 17.224 121.801 16.504 121.545 16.12C121.289 15.704 120.841 15.496 120.201 15.496C119.145 15.496 118.121 16.264 117.129 17.8C116.137 19.336 115.337 21.176 114.729 23.32C114.121 25.464 113.817 27.352 113.817 28.984C113.817 30.52 113.993 31.56 114.345 32.104C114.697 32.616 115.337 32.872 116.265 32.872ZM133.326 37.288C131.79 37.288 130.542 36.808 129.582 35.848C128.654 34.856 128.19 33.384 128.19 31.432C128.19 30.632 128.318 29.592 128.574 28.312L133.71 4.264L140.814 3.304L135.294 29.224C135.166 29.704 135.102 30.168 135.102 30.616C135.102 31.896 135.758 32.536 137.07 32.536C137.646 32.536 138.158 32.44 138.606 32.248C138.478 33.848 137.902 35.096 136.878 35.992C135.886 36.856 134.702 37.288 133.326 37.288Z" fill="url(#paint0_linear)"/>
<defs>
<linearGradient id="paint0_linear" x1="-7.45654e-07" y1="37" x2="139" y2="0.999997" gradientUnits="userSpaceOnUse">
<stop stop-color="#9945FF"/>
<stop offset="0.192708" stop-color="#7962E7"/>
<stop offset="1" stop-color="#00D18C"/>
</linearGradient>
</defs>
</svg>
